<svg width="1201" height="600" viewBox="0 0 1201 600" fill="none" xmlns="http://www.w3.org/2000/svg">
<path d="M1200.8 0H1.14282V596.707H1200.8V0Z" fill="#CAD8C7"/>
<path d="M1083.66 425.522C1083.66 237.582 869.161 85.2262 604.565 85.2262C339.969 85.2262 125.474 237.582 125.474 425.522" fill="#D4DECB"/>
<path d="M927.306 413.217C927.306 286.611 782.811 183.977 604.567 183.977C426.322 183.977 281.827 286.611 281.827 413.217" fill="#D9E1D2"/>
<path d="M604.565 579.538C724.319 579.538 821.399 510.583 821.399 425.522C821.399 340.462 724.319 271.506 604.565 271.506C484.811 271.506 387.731 340.462 387.731 425.522C387.731 510.583 484.811 579.538 604.565 579.538Z" fill="#DCE9DF"/>
<g opacity="0.5">
<path opacity="0.5" d="M1090.08 175.386C1090.31 173.971 1090.45 172.534 1090.45 171.075C1090.45 150.969 1067.5 134.67 1039.2 134.67H992.252C963.945 134.67 940.999 150.969 940.999 171.075C940.999 171.808 941.038 172.533 941.098 173.255H909.977C881.67 173.255 858.724 189.554 858.724 209.66C858.724 229.766 881.67 246.065 909.977 246.065H1072.78C1101.09 246.065 1124.04 229.766 1124.04 209.66C1124.04 193.867 1109.87 180.425 1090.08 175.386Z" fill="white"/>
</g>
<g opacity="0.5">
<path opacity="0.5" d="M0.799988 195.945H127.306C148.586 195.945 165.837 183.692 165.837 168.576C165.837 156.703 155.189 146.599 140.307 142.81C140.484 141.746 140.585 140.666 140.585 139.569C140.585 124.453 123.334 112.2 102.054 112.2H67.6208C46.3403 112.2 28.2325 124.453 28.2325 139.569C28.2325 140.119 28.2616 140.666 28.3079 141.209H0.799988V195.945Z" fill="white"/>
</g>
<g opacity="0.5">
<path opacity="0.5" d="M677.277 329.028C677.053 327.692 676.924 326.336 676.924 324.959C676.924 305.979 698.868 290.593 725.935 290.593H746.465C773.534 290.593 795.477 305.979 795.477 324.959C795.477 325.651 795.439 326.336 795.381 327.018H825.137C852.206 327.018 874.149 342.404 874.149 361.384C874.149 380.363 852.205 395.749 825.137 395.749H693.813C666.744 395.749 644.802 380.363 644.802 361.384C644.804 346.473 658.347 333.785 677.277 329.028Z" fill="white"/>
</g>
<g opacity="0.9">
<path opacity="0.9" d="M910.644 551.886C712.675 533.834 570.962 472.251 477.663 432.219C468.016 428.079 457.233 422.957 445.712 417.162L429.01 385.487L419.495 403.534C341.898 362.107 246.796 303.162 232.547 303.162C205.121 303.162 182.694 317.123 122.126 343.244C53.9954 372.625 0.799988 393.365 0.799988 393.365V598.519H1199.48V529.321C1199.48 529.322 1090.27 568.265 910.644 551.886Z" fill="#B2C4B0"/>
</g>
<path d="M1199.48 429.695C1199.48 429.695 1134.32 399.63 1082.9 369.565C978.248 308.375 936.354 286.309 923.499 286.309C905.32 286.309 805.232 353.377 712.675 395.005C609.193 441.547 487.581 499.076 289.612 526.828C109.981 552.008 0.799988 492.137 0.799988 492.137V598.52H1199.48V429.695V429.695Z" fill="#98B297"/>
<g opacity="0.5">
<path opacity="0.5" d="M442.168 290.512H434.653C434.701 289.929 434.732 289.343 434.732 288.751C434.732 272.222 415.866 258.824 392.597 258.824H258.755C235.485 258.824 216.621 272.222 216.621 288.751C216.621 289.343 216.652 289.929 216.7 290.512H181.922C158.652 290.512 139.788 303.911 139.788 320.44C139.788 336.969 158.653 350.368 181.922 350.368H442.169C465.44 350.368 484.304 336.968 484.304 320.44C484.302 303.911 465.438 290.512 442.168 290.512Z" fill="white"/>
</g>
<path d="M67.5865 596.093L7.49182 596.543L67.5865 482.567L127.683 596.543L67.5865 596.093Z" fill="#7DA881"/>
<path d="M150.349 596.704L106.461 597.033L150.349 513.796L194.238 597.033L150.349 596.704Z" fill="#7DA881"/>
<path d="M1058.82 596.704L1014.93 597.033L1058.82 513.796L1102.71 597.033L1058.82 596.704Z" fill="#7DA881"/>
<path d="M1115.39 597.62L1057.51 598.053L1115.39 488.281L1173.27 598.053L1115.39 597.62Z" fill="#7DA881"/>
<path d="M579.853 466.886L547.72 467.127L579.853 406.185L611.985 467.127L579.853 466.886Z" fill="#98B297"/>
<path d="M623.547 450.706L600.297 450.88L623.547 406.782L646.799 450.88L623.547 450.706Z" fill="#98B297"/>
<path d="M837.81 343.934L820.163 344.067L837.81 310.598L855.456 344.067L837.81 343.934Z" fill="#98B297"/>
<path d="M309.866 532.649L292.22 532.782L309.866 499.314L327.513 532.782L309.866 532.649Z" fill="#98B297"/>
<path d="M1118.92 400.715L1095.57 400.89L1118.92 356.601L1142.28 400.89L1118.92 400.715Z" fill="#98B297"/>
<g opacity="0.5">
<path opacity="0.5" d="M770.785 598.624L835.911 531.081L901.036 598.624" fill="#BC9B62"/>
<path opacity="0.5" d="M898.208 600L835.911 535.391L773.613 600L767.957 597.248L835.911 526.772L903.864 597.248L898.208 600Z" fill="#7E5B2E"/>
</g>
<g opacity="0.5">
<path opacity="0.5" d="M847.966 577.245H823.855V598.092H847.966V577.245Z" fill="#7E5B2E"/>
</g>
<g opacity="0.5">
<path opacity="0.5" d="M813.636 576.5H801.58V586.924H813.636V576.5Z" fill="#7E5B2E"/>
</g>
<g opacity="0.5">
<path opacity="0.5" d="M869.193 576.5H857.138V586.924H869.193V576.5Z" fill="#7E5B2E"/>
</g>
</svg>
