<svg width="1200" height="600" viewBox="0 0 1200 600" fill="none" xmlns="http://www.w3.org/2000/svg">
<path d="M1199.16 0H1.06158V599.971H1199.16V0Z" fill="#FFE59A"/>
<path d="M1197.84 415.149H1.06158V600H1197.84V415.149Z" fill="#FDE3CA"/>
<path d="M1082.17 391.278C1082.17 202.309 867.949 49.1201 603.698 49.1201C339.447 49.1201 125.23 202.309 125.23 391.278" fill="#FFEAAA"/>
<path d="M946.561 393.595C946.561 258.184 793.056 148.411 603.7 148.411C414.343 148.411 260.838 258.184 260.838 393.595" fill="#FFF1BC"/>
<path d="M820.249 391.278C820.249 305.752 723.296 236.419 603.698 236.419C484.1 236.419 387.146 305.752 387.146 391.278" fill="#FFFCD8"/>
<g opacity="0.5">
<path opacity="0.5" d="M121.223 145.221C121.067 144.263 120.978 143.29 120.978 142.302C120.978 128.693 136.197 117.661 154.971 117.661H186.106C204.88 117.661 220.099 128.693 220.099 142.302C220.099 142.798 220.073 143.29 220.032 143.778H240.67C259.444 143.778 274.663 154.811 274.663 168.42C274.663 182.029 259.444 193.061 240.67 193.061H132.692C113.918 193.061 98.6998 182.029 98.6998 168.42C98.6998 157.729 108.093 148.631 121.223 145.221Z" fill="white"/>
</g>
<g opacity="0.8">
<path opacity="0.8" d="M1197.84 365.663H0.719299V489.633C0.719299 489.633 46.2858 533.686 128.805 521.738C211.324 509.789 205.384 503.72 311.11 505.213C416.837 506.707 508.381 528.521 611.528 518.066C714.677 507.61 796.181 485.357 847.754 486.85C899.328 488.344 978.474 519.093 1032.63 523.575C1086.78 528.055 1197.84 506.063 1197.84 506.063V365.663H1197.84Z" fill="#F3F4F4"/>
</g>
<path d="M0.719299 336.284H1197.84V460.254C1197.84 460.254 1096.82 517.012 1014.65 505.063C932.486 493.113 901.675 464.735 796.4 466.229C691.125 467.724 598.689 514.025 495.982 503.569C393.275 493.113 290.568 476.684 239.215 478.177C187.863 479.671 144.212 500.581 90.2894 505.063C36.3673 509.544 0.719299 476.684 0.719299 476.684V336.284Z" fill="#BEDFF1"/>
<path d="M536.877 497.781C560.6 497.433 581.712 489.456 604.778 486.655C610.211 485.995 607.9 480.097 602.503 480.753C580.235 483.458 559.752 491.326 536.878 491.661C531.364 491.741 531.354 497.862 536.877 497.781Z" fill="#F3F4F4"/>
<path d="M409.75 486.346C416.965 488.834 424.414 490.333 432.453 490.436C437.975 490.507 437.967 484.385 432.453 484.315C425.965 484.232 419.905 483.071 414.071 481.06C409.123 479.355 404.779 484.632 409.75 486.346Z" fill="#F3F4F4"/>
<path d="M165.85 496.14C182.063 490.011 198.361 483.985 215.309 478.95C230.336 474.484 246.407 469.809 262.868 469.831C291.187 469.869 322.066 479.961 349.709 471.965C354.758 470.504 352.555 464.582 347.434 466.063C319.56 474.125 287.153 463.225 258.297 463.748C241.901 464.045 225.315 469.397 210.397 473.83C193.654 478.807 177.548 484.8 161.53 490.855C156.648 492.698 160.974 497.982 165.85 496.14Z" fill="#F3F4F4"/>
<path d="M775.965 470.74C810.69 466.523 848.29 467.161 883.039 470.863C918.709 474.662 950.22 492.643 987.1 491.661C992.602 491.515 992.623 485.394 987.1 485.541C967.539 486.061 948.751 480.345 930.906 475.281C914.014 470.486 897.643 466.06 879.531 464.373C844.888 461.148 808.227 460.644 773.692 464.84C768.255 465.497 770.568 471.395 775.965 470.74Z" fill="#F3F4F4"/>
<path d="M1194.81 456.268C1149.74 468.061 1107.88 487.668 1059 490.436C1053.53 490.746 1053.49 496.869 1059 496.557C1108.9 493.732 1151.1 474.201 1197.08 462.171C1202.22 460.826 1200 454.909 1194.81 456.268Z" fill="#F3F4F4"/>
<path d="M643.013 476.97C679.549 475.196 714.999 466.089 750.287 459.723C755.637 458.758 753.367 452.855 748.012 453.821C713.514 460.044 678.722 469.115 643.013 470.849C637.536 471.115 637.5 477.238 643.013 476.97Z" fill="#F3F4F4"/>
<path d="M56.2385 495.661C78.135 507.839 109.683 508.93 136.299 507.575C141.772 507.296 141.81 501.173 136.299 501.454C112.359 502.672 82.1322 502.367 62.2917 491.332C57.9897 488.94 51.8852 493.24 56.2385 495.661Z" fill="#F3F4F4"/>
<path d="M1.45875 457.711C30.0966 474.39 61.5539 484.144 98.6382 485.539C104.157 485.748 104.128 479.625 98.6382 479.419C63.9728 478.114 34.2941 468.98 7.51192 453.383C3.27162 450.914 -2.82263 455.218 1.45875 457.711Z" fill="#F3F4F4"/>
<path d="M974.667 467.984C1005.93 478.743 1037.59 476.758 1068 465.535C1072.91 463.725 1068.58 458.443 1063.68 460.25C1036.18 470.4 1007.34 472.457 978.988 462.699C974.039 460.995 969.694 466.272 974.667 467.984Z" fill="#F3F4F4"/>
<path d="M446.721 478.085C476.153 483.179 508.449 484.671 538.013 479.31C543.361 478.34 541.091 472.437 535.738 473.408C507.695 478.493 476.901 477.013 448.996 472.184C443.635 471.255 441.358 477.156 446.721 478.085Z" fill="#F3F4F4"/>
<path d="M839.878 445.142C848.314 445.145 856.425 445.353 864.417 447.481C869.601 448.861 871.818 442.943 866.692 441.579C858.027 439.274 849.026 439.026 839.876 439.022C834.359 439.018 834.359 445.139 839.878 445.142Z" fill="#F3F4F4"/>
<path d="M170.537 474.522C172.3 474.464 173.568 474.043 174.916 473.257C175.128 473.134 175.313 472.984 175.51 472.848C176.02 472.497 174.56 473.305 175.178 473.041C174.946 473.11 174.715 473.18 174.484 473.25C174.904 473.179 174.729 473.194 173.96 473.298C176.29 473.221 178.24 471.963 178.24 470.237C178.24 468.627 176.292 467.1 173.96 467.177C172.197 467.234 170.929 467.656 169.581 468.441C169.369 468.565 169.184 468.714 168.987 468.85C168.477 469.202 169.937 468.394 169.319 468.658C169.551 468.588 169.782 468.519 170.013 468.449C169.593 468.52 169.768 468.505 170.537 468.401C168.207 468.478 166.257 469.735 166.257 471.461C166.257 473.071 168.205 474.599 170.537 474.522Z" fill="#F3F4F4"/>
<path d="M245.859 516.144C276.387 516.296 305.81 521.103 335.45 525.828C340.827 526.685 343.112 520.785 337.725 519.927C307.348 515.084 277.14 510.18 245.857 510.024C240.338 509.995 240.342 516.117 245.859 516.144Z" fill="#F3F4F4"/>
<path d="M632.741 525.937C662.223 523.321 690.733 517.533 719.473 512.362C724.823 511.4 722.553 505.496 717.198 506.461C689.236 511.492 661.429 517.271 632.743 519.818C627.339 520.296 627.272 526.422 632.741 525.937Z" fill="#F3F4F4"/>
<path d="M902.079 508.69C928.143 511.605 948.39 525.522 975.115 527.162C980.617 527.499 980.571 521.375 975.115 521.041C949.408 519.463 929.628 505.614 904.355 502.787C898.956 502.183 896.638 508.082 902.079 508.69Z" fill="#F3F4F4"/>
<path d="M1011.64 533.173C1016.14 534.199 1020.84 534.596 1025.33 535.622C1030.61 536.824 1032.85 530.914 1027.61 529.72C1023.11 528.694 1018.41 528.297 1013.91 527.272C1008.64 526.068 1006.4 531.979 1011.64 533.173Z" fill="#F3F4F4"/>
<path d="M1101.79 534.507C1115.84 534.246 1128.94 531.068 1142.3 528.277C1147.59 527.172 1145.34 521.266 1140.03 522.375C1127.43 525.007 1115.05 528.141 1101.8 528.387C1096.28 528.487 1096.27 534.609 1101.79 534.507Z" fill="#F3F4F4"/>
<path d="M452.547 525.52C457.963 527.944 463.86 528.382 470.114 528.386C475.633 528.389 475.633 522.268 470.114 522.265C465.331 522.262 461.027 522.096 456.867 520.234C452.173 518.133 447.882 523.431 452.547 525.52Z" fill="#F3F4F4"/>
<path d="M132.302 534.398C139.15 533.173 145.997 531.949 152.844 530.725C158.197 529.768 155.926 523.865 150.569 524.823C143.722 526.047 136.874 527.272 130.027 528.496C124.674 529.452 126.946 535.355 132.302 534.398Z" fill="#F3F4F4"/>
<path d="M803.531 504.23C802.658 504.798 804.503 503.942 803.449 504.239C804.024 504.077 804.644 503.998 805.25 503.925C804.199 504.05 805.679 503.927 805.885 503.919C806.373 503.902 806.864 503.903 807.352 503.903C809.685 503.902 811.632 502.513 811.632 500.843C811.632 499.175 809.685 497.781 807.352 497.782C803.784 497.785 800.213 498.12 797.478 499.903C795.752 501.026 795.886 503.093 797.478 504.231C799.185 505.449 801.807 505.353 803.531 504.23Z" fill="#F3F4F4"/>
<path d="M851.861 513.695C854.143 513.695 856.426 513.695 858.708 513.695C861.041 513.695 862.988 512.304 862.988 510.635C862.988 508.966 861.041 507.575 858.708 507.575C856.426 507.575 854.143 507.575 851.861 507.575C849.527 507.575 847.581 508.966 847.581 510.635C847.581 512.304 849.527 513.695 851.861 513.695Z" fill="#F3F4F4"/>
<path d="M746.863 519.708C751.834 518.521 756.854 517.363 761.58 515.726C766.548 514.006 762.205 508.729 757.259 510.442C753.207 511.845 748.849 512.79 744.586 513.806C739.379 515.047 741.611 520.96 746.863 519.708Z" fill="#F3F4F4"/>
<path d="M532.879 538.07C539.282 537.011 545.746 536.957 552.284 536.955C557.803 536.952 557.803 530.832 552.284 530.834C544.979 530.836 537.75 530.986 530.603 532.167C525.226 533.057 527.508 538.958 532.879 538.07Z" fill="#F3F4F4"/>
</svg>
