<svg width="1200" height="600" viewBox="0 0 1200 600" fill="none" xmlns="http://www.w3.org/2000/svg">
<path d="M1200 0H1.7464V598.183H1200V0Z" fill="#E0EEF6"/>
<path d="M1057.9 426.575C1057.9 238.169 843.651 85.437 579.365 85.437C315.079 85.437 100.834 238.169 100.834 426.575" fill="#E6F0F6"/>
<path d="M901.727 414.239C901.727 287.32 757.401 184.432 579.365 184.432C401.329 184.432 257.003 287.32 257.003 414.239" fill="#EDF3F6"/>
<path d="M579.365 580.972C698.979 580.972 795.945 511.846 795.945 426.575C795.945 341.304 698.979 272.178 579.365 272.178C459.751 272.178 362.785 341.304 362.785 426.575C362.785 511.846 459.751 580.972 579.365 580.972Z" fill="white"/>
<path d="M0 600V363.718L150.485 280.722L284.028 333.205L343.952 334.425L429.557 313.676L556.252 400.334L672.674 379.585L799.369 403.995L1078.44 336.866L1200 352.733V600H0Z" fill="#E3EFF6"/>
<path d="M809.056 599.402V578.786C809.056 540.133 853.011 508.798 907.231 508.798C961.452 508.798 1005.41 540.133 1005.41 578.786V599.402" fill="white"/>
<path d="M808.527 599.402V590.933C808.527 575.055 824.12 562.183 843.355 562.183C862.589 562.183 878.182 575.055 878.182 590.933V599.402" fill="#D7E2E9"/>
<path d="M778.239 599.402V589.452C778.239 570.796 799.708 555.674 826.193 555.674C852.677 555.674 874.147 570.798 874.147 589.452V599.402" fill="white"/>
<path d="M785.43 599.402V590.933C785.43 575.055 801.021 562.183 820.257 562.183C839.492 562.183 855.084 575.055 855.084 590.933V599.402" fill="#D7E2E9"/>
<path d="M284.537 333.205L410.723 319.779L282.316 355.174L328.543 408.877L242.938 362.497L284.537 333.205Z" fill="#D3E4ED"/>
<path d="M503.177 407.657L679.523 458.919L646.993 407.657L672.674 379.585L503.177 407.657Z" fill="#D3E4ED"/>
<path d="M799.369 403.995L967.155 418.642L960.306 382.026L1044.2 384.467L1078.44 336.866L799.369 403.995Z" fill="#D3E4ED"/>
</svg>
