<svg xmlns="http://www.w3.org/2000/svg" viewBox="0 0 64 64"><g id="Layer_30" data-name="Layer 30"><path d="M39.07,14.54a16.91,16.91,0,1,0,0,23.91A16.91,16.91,0,0,0,39.07,14.54ZM37.31,36.68a14.4,14.4,0,1,1,0-20.38A14.32,14.32,0,0,1,37.31,36.68Z" id="id_101" style="fill: rgb(255, 255, 255);"></path><path d="M56.93,51.38,43.81,38.26a20.45,20.45,0,1,0-4.92,4.92L52,56.3a3.48,3.48,0,1,0,4.92-4.92Zm-42.5-12.2a17.95,17.95,0,1,1,25.38,0A18,18,0,0,1,14.43,39.18ZM55.16,54.54a1,1,0,0,1-1.39,0L40.84,41.61c.25-.22.5-.43.73-.66s.44-.49.66-.73L55.16,53.15A1,1,0,0,1,55.16,54.54Z" id="id_102" style="fill: rgb(255, 255, 255);"></path></g></svg>