<svg width="46" height="46" viewBox="0 0 46 46" fill="none" xmlns="http://www.w3.org/2000/svg">
<g clip-path="url(#clip0_1_3)">
<path d="M44.188 37.125L35.565 28.605C34.696 30.001 33.662 31.31 32.467 32.501C31.262 33.707 29.94 34.752 28.528 35.627L37.201 44.196C39.145 46.119 42.272 46.102 44.205 44.172C44.213 44.164 44.22 44.157 44.227 44.151C46.167 42.21 46.141 39.055 44.188 37.125Z" fill="white"/>
<path d="M34.385 17.229C34.385 7.749 26.673 0.0369991 17.192 0.0369991C12.453 0.0359991 8.155 1.965 5.042 5.078C1.929 8.191 0 12.489 0 17.229C0.001 26.708 7.713 34.421 17.192 34.421C21.932 34.421 26.231 32.493 29.343 29.379C32.457 26.266 34.385 21.969 34.385 17.229ZM24.659 24.695C22.746 26.607 20.104 27.793 17.193 27.793C11.368 27.793 6.629 23.055 6.629 17.229C6.629 14.317 7.814 11.676 9.727 9.763C11.639 7.85 14.281 6.666 17.194 6.665C23.017 6.665 27.757 11.404 27.757 17.228C27.757 20.141 26.572 22.782 24.659 24.695Z" fill="white"/>
</g>
<defs>
<clipPath id="clip0_1_3">
<rect width="45.667" height="45.667" fill="white"/>
</clipPath>
</defs>
</svg>
